<mxfile host="app.diagrams.net" modified="2022-12-17T15:45:48.278Z" agent="5.0 (X11; Linux x86_64) AppleWebKit/537.36 (KHTML, like Gecko) Chrome/104.0.0.0 Safari/537.36" version="20.7.4" etag="W9_XP484Bkj5LMhgSqXf" type="github" pages="2">
  <diagram id="jzuPJr4FWML4jHE6doJl" name="مشاهده صفحه اصلی وب سایت">
    <mxGraphModel dx="1050" dy="607" grid="1" gridSize="10" guides="1" tooltips="1" connect="1" arrows="1" fold="1" page="1" pageScale="1" pageWidth="4681" pageHeight="3300" math="0" shadow="0">
      <root>
        <mxCell id="0" />
        <mxCell id="1" parent="0" />
        <mxCell id="Qplo-CYy1ENvtHr_DyG8-1" value="کاربر" style="swimlane;whiteSpace=wrap" vertex="1" parent="1">
          <mxGeometry x="444.5" y="128" width="280" height="322" as="geometry" />
        </mxCell>
        <mxCell id="Qplo-CYy1ENvtHr_DyG8-2" value="" style="ellipse;shape=startState;fillColor=#000000;strokeColor=#ff0000;" vertex="1" parent="Qplo-CYy1ENvtHr_DyG8-1">
          <mxGeometry x="125" y="32" width="30" height="30" as="geometry" />
        </mxCell>
        <mxCell id="Qplo-CYy1ENvtHr_DyG8-7" value="وارد کردن آدرس سایت در مرورگر" style="rounded=1;whiteSpace=wrap;html=1;" vertex="1" parent="Qplo-CYy1ENvtHr_DyG8-1">
          <mxGeometry x="80.5" y="82" width="120" height="60" as="geometry" />
        </mxCell>
        <mxCell id="Qplo-CYy1ENvtHr_DyG8-8" value="" style="endArrow=classic;html=1;rounded=0;entryX=0.502;entryY=-0.025;entryDx=0;entryDy=0;entryPerimeter=0;strokeColor=#FF0000;" edge="1" parent="Qplo-CYy1ENvtHr_DyG8-1" source="Qplo-CYy1ENvtHr_DyG8-2" target="Qplo-CYy1ENvtHr_DyG8-7">
          <mxGeometry width="50" height="50" relative="1" as="geometry">
            <mxPoint x="225.5" y="112" as="sourcePoint" />
            <mxPoint x="275.5" y="62" as="targetPoint" />
          </mxGeometry>
        </mxCell>
        <mxCell id="Qplo-CYy1ENvtHr_DyG8-9" value="سامانه" style="swimlane;whiteSpace=wrap" vertex="1" parent="1">
          <mxGeometry x="724.5" y="128" width="284.5" height="322" as="geometry" />
        </mxCell>
        <mxCell id="Qplo-CYy1ENvtHr_DyG8-10" value="" style="ellipse;shape=endState;fillColor=#000000;strokeColor=#ff0000" vertex="1" parent="Qplo-CYy1ENvtHr_DyG8-9">
          <mxGeometry x="125" y="212" width="30" height="30" as="geometry" />
        </mxCell>
        <mxCell id="Qplo-CYy1ENvtHr_DyG8-11" value="" style="endArrow=open;strokeColor=#FF0000;endFill=1;rounded=0" edge="1" parent="Qplo-CYy1ENvtHr_DyG8-9" target="Qplo-CYy1ENvtHr_DyG8-10">
          <mxGeometry relative="1" as="geometry">
            <mxPoint x="140" y="192" as="sourcePoint" />
          </mxGeometry>
        </mxCell>
        <mxCell id="Qplo-CYy1ENvtHr_DyG8-12" value="نمایش صفحه اصلی وب‌سایت" style="rounded=1;whiteSpace=wrap;html=1;" vertex="1" parent="Qplo-CYy1ENvtHr_DyG8-9">
          <mxGeometry x="80" y="82" width="120" height="60" as="geometry" />
        </mxCell>
        <mxCell id="gXIjf-tT5cLl_wDf79tV-1" style="edgeStyle=orthogonalEdgeStyle;rounded=0;orthogonalLoop=1;jettySize=auto;html=1;" edge="1" parent="1" source="Qplo-CYy1ENvtHr_DyG8-7" target="Qplo-CYy1ENvtHr_DyG8-12">
          <mxGeometry relative="1" as="geometry" />
        </mxCell>
        <mxCell id="gXIjf-tT5cLl_wDf79tV-3" style="edgeStyle=orthogonalEdgeStyle;rounded=0;orthogonalLoop=1;jettySize=auto;html=1;" edge="1" parent="1" source="Qplo-CYy1ENvtHr_DyG8-12">
          <mxGeometry relative="1" as="geometry">
            <mxPoint x="864.5" y="350" as="targetPoint" />
          </mxGeometry>
        </mxCell>
      </root>
    </mxGraphModel>
  </diagram>
  <diagram id="eYNjurMh_SfmkhiyjVjm" name="Page-2">
    <mxGraphModel dx="1050" dy="607" grid="1" gridSize="10" guides="1" tooltips="1" connect="1" arrows="1" fold="1" page="1" pageScale="1" pageWidth="4681" pageHeight="3300" math="0" shadow="0">
      <root>
        <mxCell id="0" />
        <mxCell id="1" parent="0" />
        <mxCell id="_tu6Yyxf04oQDMpdiVpN-1" value="کاربر" style="swimlane;whiteSpace=wrap" vertex="1" parent="1">
          <mxGeometry x="380" y="128" width="280" height="570" as="geometry" />
        </mxCell>
        <mxCell id="_tu6Yyxf04oQDMpdiVpN-2" value="" style="ellipse;shape=startState;fillColor=#000000;strokeColor=#ff0000;" vertex="1" parent="_tu6Yyxf04oQDMpdiVpN-1">
          <mxGeometry x="125" y="32" width="30" height="30" as="geometry" />
        </mxCell>
        <mxCell id="_tu6Yyxf04oQDMpdiVpN-3" value="مشاهده صفحه اصلی وب‌سایت" style="rounded=1;whiteSpace=wrap;html=1;" vertex="1" parent="_tu6Yyxf04oQDMpdiVpN-1">
          <mxGeometry x="80.5" y="162" width="120" height="60" as="geometry" />
        </mxCell>
        <mxCell id="_tu6Yyxf04oQDMpdiVpN-4" value="وارد کردن شماره تماس" style="rounded=1;whiteSpace=wrap;html=1;" vertex="1" parent="_tu6Yyxf04oQDMpdiVpN-1">
          <mxGeometry x="80.5" y="242" width="120" height="60" as="geometry" />
        </mxCell>
        <mxCell id="_tu6Yyxf04oQDMpdiVpN-5" value="" style="endArrow=open;strokeColor=#FF0000;endFill=1;rounded=0;exitX=0.511;exitY=1.012;exitDx=0;exitDy=0;exitPerimeter=0;entryX=0.516;entryY=0.019;entryDx=0;entryDy=0;entryPerimeter=0;" edge="1" parent="_tu6Yyxf04oQDMpdiVpN-1" source="_tu6Yyxf04oQDMpdiVpN-3" target="_tu6Yyxf04oQDMpdiVpN-4">
          <mxGeometry relative="1" as="geometry">
            <mxPoint x="140.5" y="292" as="sourcePoint" />
            <mxPoint x="175.5" y="282" as="targetPoint" />
            <Array as="points" />
          </mxGeometry>
        </mxCell>
        <mxCell id="_tu6Yyxf04oQDMpdiVpN-6" value="وارد کردن کد تایید" style="rounded=1;whiteSpace=wrap;html=1;" vertex="1" parent="_tu6Yyxf04oQDMpdiVpN-1">
          <mxGeometry x="80.5" y="322" width="120" height="60" as="geometry" />
        </mxCell>
        <mxCell id="_tu6Yyxf04oQDMpdiVpN-7" style="edgeStyle=orthogonalEdgeStyle;rounded=0;orthogonalLoop=1;jettySize=auto;html=1;" edge="1" parent="_tu6Yyxf04oQDMpdiVpN-1" source="_tu6Yyxf04oQDMpdiVpN-8" target="_tu6Yyxf04oQDMpdiVpN-3">
          <mxGeometry relative="1" as="geometry" />
        </mxCell>
        <mxCell id="_tu6Yyxf04oQDMpdiVpN-8" value="وارد کردن آدرس سایت در مرورگر" style="rounded=1;whiteSpace=wrap;html=1;" vertex="1" parent="_tu6Yyxf04oQDMpdiVpN-1">
          <mxGeometry x="80.5" y="82" width="120" height="60" as="geometry" />
        </mxCell>
        <mxCell id="_tu6Yyxf04oQDMpdiVpN-9" value="" style="endArrow=classic;html=1;rounded=0;entryX=0.502;entryY=-0.025;entryDx=0;entryDy=0;entryPerimeter=0;strokeColor=#FF0000;" edge="1" parent="_tu6Yyxf04oQDMpdiVpN-1" source="_tu6Yyxf04oQDMpdiVpN-2" target="_tu6Yyxf04oQDMpdiVpN-8">
          <mxGeometry width="50" height="50" relative="1" as="geometry">
            <mxPoint x="225.5" y="112" as="sourcePoint" />
            <mxPoint x="275.5" y="62" as="targetPoint" />
          </mxGeometry>
        </mxCell>
        <mxCell id="_tu6Yyxf04oQDMpdiVpN-10" value="سامانه" style="swimlane;whiteSpace=wrap" vertex="1" parent="1">
          <mxGeometry x="660" y="128" width="280" height="570" as="geometry" />
        </mxCell>
        <mxCell id="_tu6Yyxf04oQDMpdiVpN-11" value="" style="ellipse;shape=endState;fillColor=#000000;strokeColor=#ff0000" vertex="1" parent="_tu6Yyxf04oQDMpdiVpN-10">
          <mxGeometry x="125" y="522" width="30" height="30" as="geometry" />
        </mxCell>
        <mxCell id="_tu6Yyxf04oQDMpdiVpN-12" value="" style="endArrow=open;strokeColor=#FF0000;endFill=1;rounded=0" edge="1" parent="_tu6Yyxf04oQDMpdiVpN-10" source="_tu6Yyxf04oQDMpdiVpN-16" target="_tu6Yyxf04oQDMpdiVpN-11">
          <mxGeometry relative="1" as="geometry">
            <mxPoint x="140.5" y="472" as="sourcePoint" />
          </mxGeometry>
        </mxCell>
        <mxCell id="_tu6Yyxf04oQDMpdiVpN-13" value="نمایش فرم ثبت نام" style="rounded=1;whiteSpace=wrap;html=1;" vertex="1" parent="_tu6Yyxf04oQDMpdiVpN-10">
          <mxGeometry x="80" y="82" width="120" height="60" as="geometry" />
        </mxCell>
        <mxCell id="_tu6Yyxf04oQDMpdiVpN-14" value="صحت سنجی" style="rhombus;fillColor=#ffffc0;strokeColor=#ff0000;" vertex="1" parent="_tu6Yyxf04oQDMpdiVpN-10">
          <mxGeometry x="100" y="372" width="80" height="40" as="geometry" />
        </mxCell>
        <mxCell id="_tu6Yyxf04oQDMpdiVpN-15" value="ارسال کد تایید&amp;nbsp;" style="rounded=1;whiteSpace=wrap;html=1;" vertex="1" parent="_tu6Yyxf04oQDMpdiVpN-10">
          <mxGeometry x="80" y="242" width="120" height="60" as="geometry" />
        </mxCell>
        <mxCell id="_tu6Yyxf04oQDMpdiVpN-16" value="نمایش صفحه ورود" style="rounded=1;whiteSpace=wrap;html=1;" vertex="1" parent="_tu6Yyxf04oQDMpdiVpN-10">
          <mxGeometry x="80" y="442" width="120" height="60" as="geometry" />
        </mxCell>
        <mxCell id="_tu6Yyxf04oQDMpdiVpN-17" value="" style="endArrow=classic;html=1;rounded=0;exitX=0.5;exitY=1;exitDx=0;exitDy=0;entryX=0.508;entryY=-0.05;entryDx=0;entryDy=0;entryPerimeter=0;strokeColor=#FF0000;" edge="1" parent="_tu6Yyxf04oQDMpdiVpN-10" source="_tu6Yyxf04oQDMpdiVpN-14" target="_tu6Yyxf04oQDMpdiVpN-16">
          <mxGeometry width="50" height="50" relative="1" as="geometry">
            <mxPoint x="-44.5" y="422" as="sourcePoint" />
            <mxPoint x="5.5" y="372" as="targetPoint" />
          </mxGeometry>
        </mxCell>
      </root>
    </mxGraphModel>
  </diagram>
</mxfile>
